# xmcd
# 
# Track frame offsets:
#     150
#     21344
#     37753
#     55269
#     67198
#     84200
#     99333
#     119760
#     134323
#     149042
#     164984
#     180252
#     202806
#     218823
# 
# Disc length: 3162
# 
# Revision: 3
# Processed by: cddbd v1.5.2PL0 Copyright (c) Steve Scherf et al.
# Submitted via: fre:ac v1.0.17
# 
DISCID=cb0c580e
DTITLE=Sungha Jung - Perfect Blue
DYEAR=2010
DGENRE=Guitar
TTITLE0=Hazy Sunshine
TTITLE1=Billie Jean
TTITLE2=One Of Us
TTITLE3=California Dreaming
TTITLE4=Love Of My Life
TTITLE5=Fields Of Gold
TTITLE6=Superstition
TTITLE7=Perfect Blue
TTITLE8=More Than Words
TTITLE9=Livin' On A Prayer
TTITLE10=A Whiter Shade Of Pale
TTITLE11=Wake Me Up When September Ends
TTITLE12=Twist In My Sobriety
TTITLE13=I Believe I Can Fly
EXTD=
EXTT0=
EXTT1=
EXTT2=
EXTT3=
EXTT4=
EXTT5=
EXTT6=
EXTT7=
EXTT8=
EXTT9=
EXTT10=
EXTT11=
EXTT12=
EXTT13=
PLAYORDER=
